<svg width="16" height="16" viewBox="0 0 16 16" fill="none" xmlns="http://www.w3.org/2000/svg">
<g clip-path="url(#clip0_202_3185)">
<path d="M13.7524 4.30768L12.9524 14.7846C12.9333 15.1077 12.5905 15.3846 12.1905 15.3846H3.80952C3.40952 15.3846 3.06667 15.1077 3.04762 14.7846L2.24762 4.30768H1.48571L2.28571 14.8308C2.34286 15.4769 3.00952 16 3.80952 16H12.1905C12.9905 16 13.6571 15.4769 13.7143 14.8308L14.5143 4.30768H13.7524ZM15.2381 1.53845H0.761905C0.342857 1.53845 0 1.81538 0 2.15384V3.38461C0 3.72307 0.342857 3.99999 0.761905 3.99999H15.2381C15.6571 3.99999 16 3.72307 16 3.38461V2.15384C16 1.81538 15.6571 1.53845 15.2381 1.53845ZM15.2381 3.38461H0.761905V2.15384H15.2381V3.38461Z" fill="#1F8F2A"/>
<path d="M8.19057 14.1077C8.07629 14.1077 8.00009 14.0462 8.00009 13.9539V5.07694C8.00009 4.98463 8.07629 4.9231 8.19057 4.9231C8.30486 4.9231 8.38105 4.98463 8.38105 5.07694V13.9539C8.38105 14.0308 8.30486 14.1077 8.19057 14.1077ZM11.0096 14.1077C10.8953 14.1077 10.8191 14.0308 10.8191 13.9539L11.2382 5.07694C11.2382 4.98463 11.3334 4.9231 11.4287 4.9231C11.543 4.9231 11.6191 5.00002 11.6191 5.07694L11.2001 13.9539C11.2001 14.0308 11.1239 14.1077 11.0096 14.1077ZM5.27629 14.1077C5.18105 14.1077 5.08581 14.0462 5.08581 13.9539L4.60962 5.07694C4.60962 4.98463 4.68581 4.9231 4.8001 4.9231C4.89533 4.9231 4.99057 4.98463 4.99057 5.07694L5.46676 13.9539C5.46676 14.0308 5.39057 14.0923 5.27629 14.1077Z" fill="#1F8F2A"/>
<path d="M5.90476 1.23077V0.923077C5.90476 0.753846 6.07619 0.615385 6.28571 0.615385H10.0952C10.3048 0.615385 10.4762 0.753846 10.4762 0.923077V1.23077H11.2381V0.923077C11.2381 0.415385 10.7238 0 10.0952 0H6.28571C5.65714 0 5.14285 0.415385 5.14285 0.923077V1.23077H5.90476Z" fill="#1F8F2A"/>
</g>
<defs>
<clipPath id="clip0_202_3185">
<rect width="16" height="16" fill="white"/>
</clipPath>
</defs>
</svg>
